<?xml version="1.0" encoding="utf-8"?>
<!-- Generator: Adobe Illustrator 15.0.0, SVG Export Plug-In . SVG Version: 6.00 Build 0)  -->
<!DOCTYPE svg PUBLIC "-//W3C//DTD SVG 1.1//EN" "http://www.w3.org/Graphics/SVG/1.1/DTD/svg11.dtd">
<svg version="1.1" id="Outlined" xmlns="http://www.w3.org/2000/svg" xmlns:xlink="http://www.w3.org/1999/xlink" x="0px" y="0px"
	 width="453.543px" height="453.543px" viewBox="0 0 453.543 453.543" enable-background="new 0 0 453.543 453.543"
	 xml:space="preserve">
<g>
	<g>
		<polygon fill="#FFFFFF" points="201.864,48.91 202.273,53.041 211.715,52.083 211.307,47.974 		"/>
		<polygon fill="#FFFFFF" points="237.856,51.683 247.301,52.635 247.725,48.528 238.281,47.552 		"/>
	</g>
	<path fill="#FFFFFF" d="M226.771,14.971c-116.972,0-211.797,94.828-211.797,211.802s94.826,211.8,211.797,211.8
		c116.971,0,211.8-94.826,211.8-211.8S343.741,14.971,226.771,14.971z M414.798,194.165l0.794,9.457l-2.364,0.198l0.817,9.456
		l4.116-0.344l-1.588-18.914l8.272-0.694l2.035,24.233l-3.789,4.485l-12.388,1.04l-4.104-3.466l-12.372,6.04l-0.893-10.639
		l12.009-5.842l-0.392-4.658l-12.412,1.042l-0.794-9.457L414.798,194.165z M394.294,230.176l23.005,2.44l-0.992,9.416l-2.357-0.249
		l-0.994,9.461l-8.257-0.89l0.993-9.437l-4.13-0.436l-1.738,16.541l-8.257-0.89L394.294,230.176z M395.331,260.673l18.159,5.518
		l-2.76,9.079l-14.188-4.31l-2.736,9.087l4.54,1.38l-2.767,9.101l-8.507-2.607l-2.766-5.179l5.841-19.305L395.331,260.673z
		 M354.037,72.223l7.839,6.345l-15.97,6.455l1.856-10.25L354.037,72.223z M339.746,60.655L347.584,67l-3.378,18.725l-0.5,0.205
		l-10.105,12.483l-7.376-5.971l10.105-12.484L339.746,60.655z M316.157,61.599l1.921-3.655l-16.8-8.833l3.865-7.351l21.523,11.32
		l1.741,5.607l-5.784,11.004l-5.127,1.592l-1.564,13.68l-9.448-4.969l1.533-13.267l-4.136-2.176l-5.796,11.025l-8.4-4.417
		l10.766-20.474l8.4,4.417l-1.104,2.101L316.157,61.599z M271.093,30.986l24.985,7.544l-2.423,7.942l-24.961-7.538L271.093,30.986z
		 M268.18,40.639l9.062,2.737l-0.685,2.27l9.107,2.75l-2.423,7.942l-9.084-2.744l-1.2,3.974l15.922,4.808l-2.424,7.942
		l-24.983-7.544L268.18,40.639z M229.942,35.956l9.438,0.976l-0.243,2.36l9.441,0.952l0.427-4.106l-18.88-1.951l0.853-8.26
		l24.191,2.502l3.7,4.557l-1.035,10.03l-2.603,2.116l2.113,2.603l-1.033,10.007l-4.556,3.704l-24.193-2.478L229.942,35.956z
		 M214.573,26.789l4.542,3.724l0.993,10.034l-2.127,2.594l2.595,2.127l0.991,10.011l-3.724,4.54l-24.197,2.421l-2.28-23.021
		l9.444-0.936l0.233,2.361l9.441-0.958l-0.406-4.109l-18.888,1.871l-0.818-8.264L214.573,26.789z M155.175,39.352l19.273-6.016
		l5.2,2.727l7.416,23.758l-2.727,5.201l-19.243,6.03l-5.2-2.726l-5.655-18.119l9.058-2.826l4.418,14.154l9.052-2.849l-4.941-15.833
		l-18.119,5.655l-1.236-3.964L155.175,39.352z M136.469,47.894l5.645,1.615l6.034,10.87l-1.476,5.161l10.585,8.804l-9.335,5.183
		l-10.257-8.553l-4.087,2.268l6.045,10.891l-8.297,4.607L120.1,68.512l8.297-4.607l1.15,2.076l8.287-4.627l-2.004-3.61
		l-16.596,9.212l-4.029-7.261L136.469,47.894z M53.222,251.405l-4.103,0.638l0.728,4.689l-8.207,1.272l-2.185-14.067l16.412-2.548
		l4.739,3.466l3.094,19.928l-3.466,4.739l-18.757,2.911l-1.455-9.377l14.653-2.274L53.222,251.405z M63.258,192.021l-22.383-5.741
		l2.356-9.193l22.385,5.74L63.258,192.021z M35.823,165.391l8.043,2.062l-7.074,27.579l-8.044-2.064L35.823,165.391z
		 M27.401,205.195l33.153,1.59l-0.457,9.479l-33.153-1.591L27.401,205.195z M26.489,224.154l12.443,0.597l0.369-7.703l8.294,0.397
		l-0.369,7.702l12.441,0.596l-0.455,9.481l-33.178-1.593L26.489,224.154z M27.15,245.849l8.206-1.274l4.367,28.134l-4.104,0.638
		l-4.735-3.444L27.15,245.849z M35.039,284.427l31.693-9.937l2.84,9.056l-31.694,9.938L35.039,284.427z M48.761,318.543
		l22.463-10.773l-8.218-17.135l7.499-3.57l12.311,25.672l-29.961,14.341L48.761,318.543z M58.741,336.199l17.079-2.248l-4.365,9.458
		l-6.715,0.896L58.741,336.199z M75.678,359.085l-6-8.105l7.961-17.28l0.537-0.074l12.91-9.553l5.646,7.627l-12.912,9.555
		L75.678,359.085z M104.446,363.605l-3.854,8.354l0.438-0.275l7.085,6.313l-7.401,4.527l-10.627-9.472l14.57-31.507l7.085,6.314
		l-3.648,7.873l7.758,6.912l7.401-4.525l7.085,6.315l-20.632,12.599l-7.084-6.314l5.811-3.562L104.446,363.605z M147.705,400.441
		l-8.258-4.676l7.301-12.904l-8.27-4.653l-8.168,14.434l16.518,9.348l-4.09,7.227l-21.165-11.977l-1.569-5.657l12.258-21.659
		l5.659-1.569l21.176,11.956L147.705,400.441z M68.931,226.772c0-87.176,70.667-157.843,157.84-157.843
		c87.172,0,157.841,70.667,157.841,157.843c0,87.173-70.669,157.842-157.841,157.842C139.598,384.614,68.931,313.945,68.931,226.772
		z M292.51,385.2l1.86-5.568l21.759-10.86l3.707,7.43l-16.981,8.476l1.854,3.714l13.27-6.622l5.568,1.861l2.913,5.838l-8.492,4.238
		l-1.06-2.123l-13.268,6.624l-5.571-1.861L292.51,385.2z M327.268,400.334l-21.779,10.87l-3.709-7.427l25.476-12.716l1.854,3.715
		L327.268,400.334z M344.354,388.932l-5.829-0.698l-15.384-19.563l0.699-5.83l19.103-15.05l14.298,18.185l-7.462,5.865
		l-9.165-11.656l-7.446,5.885l10.251,13.038l14.922-11.734l5.133,6.528L344.354,388.932z M374.645,361.873l-5.851,0.489
		l-9.491-8.029l-0.448-5.349l-13.016-4.484l6.895-8.151l12.62,4.366l3.019-3.568l-9.51-8.045l6.131-7.244l17.661,14.938l-6.13,7.246
		l-1.811-1.532l-6.111,7.26l3.149,2.666l12.26-14.492l6.339,5.363L374.645,361.873z M398.901,329.25l-5.632,1.657l-21.851-11.914
		l-1.658-5.635l9.635-17.717l5.632-1.657l16.664,9.085l-4.545,8.333l-13.02-7.099l-4.521,8.341l14.56,7.939l9.085-16.662
		l3.646,1.985l1.67,5.613L398.901,329.25z M416.072,292.389l-5.181,2.769l-8.514-2.591l2.789-9.096l4.511,1.396l5.518-18.16
		l3.973,1.206l2.773,5.158L416.072,292.389z M416.344,258.733l2.725-25.931l8.258,0.866l-2.727,25.957L416.344,258.733z"/>
	<g>
		<path fill="#FFFFFF" d="M215.455,379.164c0,0,0,0,0-0.017l0,0c-3.925-0.278-6.885-3.706-6.592-7.631l0,0
			c0.277-3.94,3.707-6.899,7.632-6.608l0,0c3.939,0.294,6.899,3.707,6.606,7.647l0,0c-0.278,3.75-3.413,6.622-7.12,6.622l0,0
			C215.808,379.178,215.633,379.178,215.455,379.164z M230.615,372.556c-0.292-3.94,2.667-7.368,6.592-7.66l0,0
			c3.941-0.295,7.369,2.665,7.662,6.592l0,0c0.277,3.939-2.667,7.367-6.592,7.66l0,0c0,0,0,0-0.015,0l0,0
			c-0.176,0.017-0.352,0.017-0.527,0.017l0,0C234.029,379.164,230.895,376.306,230.615,372.556z M192.867,375.793
			c-3.838-0.881-6.256-4.702-5.376-8.54l0,0c0.864-3.853,4.687-6.257,8.54-5.392l0,0c3.837,0.88,6.254,4.702,5.391,8.54l0,0
			c-0.747,3.326-3.707,5.568-6.958,5.568l0,0C193.936,375.971,193.411,375.91,192.867,375.793z M252.296,370.375
			c-0.88-3.84,1.54-7.677,5.378-8.541l0,0c3.853-0.879,7.675,1.522,8.554,5.376l0,0c0.879,3.837-1.537,7.661-5.375,8.54l0,0l0,0l0,0
			c-0.543,0.118-1.07,0.175-1.599,0.175l0,0C256.001,375.925,253.058,373.685,252.296,370.375z M171.027,369.084L171.027,369.084
			L171.027,369.084c-3.677-1.45-5.479-5.596-4.043-9.258l0,0c1.435-3.677,5.581-5.478,9.257-4.043l0,0
			c3.678,1.435,5.479,5.582,4.044,9.257l0,0c-1.099,2.814-3.809,4.527-6.65,4.527l0,0
			C172.769,369.567,171.876,369.422,171.027,369.084z M273.421,364.984c-1.451-3.662,0.351-7.808,4.028-9.258l0,0
			c3.662-1.436,7.806,0.366,9.255,4.028l0,0c1.437,3.676-0.366,7.821-4.028,9.258l0,0c-0.864,0.351-1.74,0.498-2.622,0.498l0,0
			C277.214,369.509,274.52,367.795,273.421,364.984z M150.447,359.168c-3.413-1.977-4.584-6.343-2.608-9.756l0,0
			c1.963-3.413,6.329-4.586,9.756-2.606l0,0c3.413,1.977,4.57,6.343,2.608,9.756l0,0c-1.333,2.286-3.721,3.56-6.197,3.56l0,0
			C152.79,360.121,151.574,359.812,150.447,359.168z M293.458,356.487c-1.979-3.413-0.806-7.779,2.607-9.756l0,0
			c3.412-1.978,7.778-0.806,9.755,2.606l0,0c1.979,3.413,0.821,7.78-2.594,9.756l0,0c-1.129,0.645-2.357,0.967-3.573,0.967l0,0
			C297.193,360.061,294.792,358.771,293.458,356.487z M131.58,346.292c-3.091-2.447-3.589-6.942-1.129-10.035l0,0
			c2.46-3.077,6.944-3.588,10.035-1.129l0,0c3.076,2.462,3.587,6.958,1.127,10.035l0,0c-1.406,1.774-3.486,2.695-5.58,2.695l0,0
			C134.464,347.858,132.898,347.347,131.58,346.292z M312.031,345.09c-2.46-3.076-1.963-7.572,1.114-10.034l0,0
			c3.09-2.461,7.589-1.963,10.048,1.128l0,0c2.462,3.077,1.949,7.573-1.127,10.035l0,0l0,0l0,0
			c-1.318,1.055-2.887,1.554-4.453,1.554l0,0C315.52,347.772,313.438,346.862,312.031,345.09z M114.835,330.778L114.835,330.778
			L114.835,330.778c-2.681-2.886-2.519-7.396,0.366-10.093l0,0c2.887-2.681,7.413-2.521,10.094,0.366l0,0
			c2.695,2.886,2.519,7.412-0.366,10.093l0,0c-1.378,1.275-3.12,1.921-4.864,1.921l0,0
			C118.16,333.064,116.241,332.287,114.835,330.778z M328.703,331.057c-2.888-2.681-3.063-7.192-0.383-10.094l0,0
			c2.682-2.885,7.207-3.047,10.094-0.365l0,0c2.887,2.679,3.063,7.19,0.382,10.093l0,0c-1.405,1.508-3.327,2.271-5.244,2.271l0,0
			C331.823,332.961,330.079,332.332,328.703,331.057z M100.582,312.951c-2.227-3.252-1.392-7.69,1.86-9.916l0,0
			c3.253-2.229,7.705-1.408,9.932,1.859l0,0c2.226,3.253,1.392,7.69-1.861,9.919l0,0c-1.245,0.849-2.636,1.259-4.028,1.259l0,0
			C104.201,316.072,101.959,314.974,100.582,312.951z M343.116,314.709c-3.266-2.228-4.103-6.664-1.874-9.918l0,0
			c2.227-3.266,6.665-4.103,9.931-1.873l0,0c3.252,2.226,4.087,6.664,1.861,9.93l0,0l0,0l0,0c-1.376,2.021-3.619,3.104-5.903,3.104
			l0,0C345.739,315.955,344.347,315.546,343.116,314.709z M89.141,293.206c-1.728-3.545-0.235-7.822,3.312-9.536l0,0
			c3.559-1.715,7.822-0.234,9.55,3.326l0,0c1.713,3.545,0.22,7.822-3.325,9.535l0,0c-1.011,0.484-2.066,0.719-3.105,0.719l0,0
			C92.921,297.248,90.371,295.755,89.141,293.206z M354.937,296.398c-3.559-1.714-5.038-5.975-3.325-9.537l0,0
			c1.715-3.545,5.977-5.038,9.521-3.324l0,0c3.56,1.714,5.054,5.977,3.34,9.535l0,0l0,0l0,0c-1.231,2.55-3.779,4.043-6.444,4.043
			l0,0C356.989,297.115,355.934,296.882,354.937,296.398z M80.764,271.966c-1.157-3.764,0.953-7.778,4.717-8.937l0,0
			c3.765-1.17,7.765,0.939,8.936,4.719l0,0c1.158,3.764-0.953,7.763-4.718,8.921l0,0c-0.702,0.219-1.406,0.322-2.108,0.322l0,0
			C84.542,276.989,81.717,275.025,80.764,271.966z M363.888,276.521c-3.766-1.158-5.875-5.158-4.718-8.92l0,0
			c1.157-3.78,5.156-5.892,8.92-4.731l0,0c3.78,1.171,5.89,5.157,4.731,8.937l0,0l0,0l0,0c-0.951,3.062-3.779,5.037-6.825,5.037l0,0
			C365.308,276.844,364.591,276.74,363.888,276.521z M75.68,249.699c-0.586-3.896,2.109-7.544,6.005-8.131l0,0
			c3.897-0.583,7.53,2.098,8.115,6.009l0,0c0.586,3.895-2.094,7.528-5.991,8.113l0,0c-0.366,0.059-0.718,0.091-1.07,0.091l0,0
			C79.271,255.781,76.224,253.244,75.68,249.699z M369.761,255.546c-3.896-0.585-6.592-4.22-6.007-8.131l0,0
			c0.586-3.896,4.219-6.592,8.116-6.007l0,0c3.896,0.587,6.592,4.221,6.006,8.115l0,0c-0.526,3.547-3.573,6.093-7.046,6.093l0,0
			C370.48,255.616,370.127,255.588,369.761,255.546z M73.981,226.936c-0.014-3.94,3.179-7.148,7.134-7.148l0,0
			c3.94,0,7.134,3.194,7.148,7.134l0,0c0,3.94-3.193,7.149-7.134,7.149l0,0C77.174,234.07,73.981,230.879,73.981,226.936z
			 M365.28,226.775c0-0.059,0-0.102,0-0.159l0,0c0-0.044,0-0.103,0-0.148l0,0c0-3.94,3.179-7.148,7.134-7.163l0,0
			c3.939,0,7.148,3.194,7.148,7.134l0,0c0,0.031,0,0.075,0,0.103l0,0c0,0.075,0,0.161,0,0.234l0,0c0,3.939-3.194,7.135-7.134,7.135
			l0,0C368.487,233.91,365.28,230.714,365.28,226.775z M81.658,212.288c-3.911-0.571-6.608-4.204-6.021-8.115l0,0
			c0.571-3.896,4.205-6.592,8.116-6.005l0,0c3.896,0.571,6.592,4.204,6.005,8.115l0,0c-0.526,3.545-3.573,6.093-7.06,6.093l0,0
			C82.361,212.375,82.007,212.346,81.658,212.288z M363.712,205.828L363.712,205.828c-0.586-3.911,2.094-7.544,5.99-8.13l0,0
			c3.897-0.6,7.543,2.08,8.13,5.992l0,0c0.587,3.896-2.094,7.529-5.991,8.13l0,0c-0.366,0.043-0.717,0.073-1.083,0.073l0,0
			C367.286,211.893,364.254,209.358,363.712,205.828z M85.407,190.828c-3.779-1.157-5.888-5.156-4.73-8.92l0,0
			c1.157-3.779,5.141-5.889,8.92-4.731l0,0c3.764,1.157,5.888,5.141,4.731,8.92l0,0c-0.951,3.077-3.779,5.039-6.827,5.039l0,0
			C86.798,191.135,86.094,191.033,85.407,190.828z M359.082,185.657L359.082,185.657c-1.171-3.765,0.938-7.764,4.702-8.936l0,0
			c3.766-1.172,7.765,0.938,8.937,4.702l0,0l0,0l0,0c1.172,3.764-0.938,7.764-4.702,8.936l0,0c-0.702,0.22-1.422,0.322-2.108,0.322
			l0,0C362.862,190.681,360.035,188.719,359.082,185.657z M92.337,170.159c-3.545-1.714-5.04-5.977-3.34-9.536l0,0
			c1.714-3.56,5.977-5.054,9.536-3.34l0,0c3.545,1.714,5.04,5.977,3.34,9.536l0,0c-1.23,2.549-3.794,4.043-6.446,4.043l0,0
			C94.385,170.862,93.331,170.627,92.337,170.159z M351.481,166.409c-1.729-3.545-0.249-7.808,3.312-9.536l0,0
			c3.545-1.714,7.822-0.234,9.536,3.311l0,0c1.729,3.544,0.234,7.822-3.311,9.536l0,0c-0.997,0.498-2.065,0.718-3.105,0.718l0,0
			C355.26,170.438,352.711,168.958,351.481,166.409z M102.296,150.764c-3.267-2.226-4.101-6.665-1.89-9.931l0,0c0,0,0,0,0,0.015l0,0
			c2.226-3.267,6.665-4.116,9.932-1.89l0,0c3.251,2.226,4.101,6.665,1.874,9.917v0.015c-1.376,2.021-3.618,3.105-5.902,3.105l0,0
			C104.918,151.995,103.528,151.6,102.296,150.764z M341.079,148.523c-2.226-3.252-1.39-7.69,1.863-9.917l0,0
			c3.251-2.241,7.688-1.406,9.916,1.845l0,0c2.241,3.252,1.406,7.69-1.846,9.932l0,0c-1.231,0.834-2.638,1.245-4.028,1.245l0,0
			C344.713,151.629,342.472,150.544,341.079,148.523z M115.025,133.069c-2.899-2.681-3.061-7.192-0.395-10.093l0,0
			c2.681-2.886,7.207-3.062,10.092-0.381l0,0c2.901,2.681,3.077,7.193,0.396,10.093l0,0c-1.406,1.509-3.326,2.285-5.244,2.285l0,0
			C118.131,134.974,116.403,134.343,115.025,133.069z M328.145,132.381c-2.695-2.885-2.532-7.412,0.353-10.093l0,0
			c2.885-2.695,7.396-2.534,10.093,0.352l0,0l0,0l0,0c2.68,2.885,2.521,7.412-0.365,10.093l0,0
			c-1.363,1.289-3.122,1.918-4.863,1.918l0,0C331.456,134.651,329.551,133.89,328.145,132.381z M130.233,117.468
			c-2.462-3.076-1.964-7.573,1.113-10.034l0,0c3.076-2.475,7.573-1.978,10.034,1.113l0,0c2.462,3.076,1.979,7.573-1.113,10.034
			h0.014c-1.317,1.054-2.9,1.567-4.467,1.567l0,0C133.719,120.149,131.639,119.227,130.233,117.468z M312.94,118.318
			c-3.09-2.461-3.604-6.958-1.141-10.035l0,0c2.461-3.09,6.941-3.604,10.034-1.142l0,0c3.09,2.461,3.604,6.943,1.142,10.034l0,0
			c-1.406,1.772-3.502,2.695-5.595,2.695l0,0C315.826,119.871,314.26,119.358,312.94,118.318z M147.589,104.285
			c-1.993-3.398-0.821-7.778,2.578-9.755l0,0c3.413-1.978,7.793-0.82,9.771,2.593l0,0c1.978,3.413,0.821,7.778-2.592,9.755l0,0
			c-1.128,0.66-2.359,0.967-3.575,0.967l0,0C151.297,107.845,148.909,106.57,147.589,104.285z M295.819,106.673
			c-3.413-1.978-4.587-6.343-2.622-9.756l0,0c1.977-3.428,6.341-4.6,9.754-2.622l0,0l0,0l0,0c3.414,1.962,4.601,6.328,2.622,9.756
			l0,0c-1.317,2.285-3.721,3.574-6.195,3.574l0,0C298.174,107.625,296.945,107.317,295.819,106.673z M166.691,93.855
			c-1.451-3.677,0.352-7.822,4.028-9.272l0,0c3.662-1.436,7.808,0.352,9.258,4.028l0,0c1.449,3.662-0.352,7.808-4.028,9.258l0,0
			c-0.85,0.337-1.744,0.499-2.608,0.499l0,0C170.486,98.368,167.805,96.653,166.691,93.855z M277.156,97.708
			c-3.662-1.436-5.479-5.581-4.044-9.258l0,0c1.436-3.662,5.582-5.478,9.244-4.042l0,0c3.677,1.436,5.493,5.566,4.059,9.243l0,0
			c-1.099,2.828-3.795,4.541-6.65,4.541l0,0C278.899,98.191,278.019,98.045,277.156,97.708z M187.168,86.385
			c-0.893-3.853,1.509-7.676,5.362-8.555l0,0c3.838-0.878,7.676,1.523,8.554,5.362l0,0c0.88,3.852-1.523,7.676-5.36,8.554l0,0
			c-0.542,0.132-1.084,0.191-1.612,0.191l0,0C190.861,91.937,187.918,89.695,187.168,86.385z M257.366,91.644
			c-3.854-0.864-6.271-4.687-5.406-8.54l0,0c0.88-3.853,4.702-6.255,8.54-5.391l0,0l0,0l0,0c3.853,0.864,6.271,4.688,5.404,8.54l0,0
			c-0.748,3.311-3.705,5.567-6.974,5.567l0,0C258.419,91.819,257.891,91.761,257.366,91.644z M208.513,82.078
			c-0.293-3.94,2.652-7.368,6.592-7.661l0,0c3.925-0.307,7.354,2.652,7.662,6.577l0,0c0.292,3.926-2.652,7.368-6.592,7.661l0,0
			c-0.176,0.015-0.366,0.015-0.542,0.015l0,0C211.926,88.67,208.805,85.813,208.513,82.078z M236.886,88.626
			c-3.926-0.293-6.886-3.706-6.606-7.646l0,0c0.277-3.926,3.705-6.885,7.646-6.606l0,0c0,0,0,0-0.015,0l0,0
			c3.939,0.278,6.899,3.706,6.606,7.632l0,0c-0.264,3.765-3.397,6.636-7.104,6.636l0,0
			C237.239,88.641,237.062,88.626,236.886,88.626z"/>
	</g>
	<path fill="#FFFFFF" d="M226.771,451.367c-123.842,0-224.595-100.754-224.595-224.595c0-123.844,100.752-224.597,224.595-224.597
		c123.842,0,224.596,100.753,224.596,224.597C451.366,350.613,350.613,451.367,226.771,451.367z M226.771,9.59
		C107.018,9.59,9.592,107.017,9.592,226.772c0,119.753,97.425,217.181,217.179,217.181c119.753,0,217.18-97.428,217.18-217.181
		C443.95,107.019,346.524,9.59,226.771,9.59z"/>
	<g>
		<path fill="#FFFFFF" d="M226.771,95.462c-72.519,0-131.308,58.792-131.308,131.311c0,72.521,58.788,131.312,131.308,131.312
			c72.52,0,131.311-58.791,131.311-131.312C358.081,154.254,299.29,95.462,226.771,95.462z M312.152,227.141
			c-0.332,0.772-2.805,0.333-5.112,0.333c-2.309,0-0.718,0.864-3.21,2.335c-1.326,0.778-4.579,1.991-6.745,2.139
			c-2.166,0.14-3.32-1.271-4.616-2.139c-1.298-0.867-0.861-0.605-4.324-1.182c-3.464-0.579-10.673,1.038-13.854,1.182
			c-3.171,0.145-9.228,0-9.228,0s-0.658,3.656-0.517,5.673c0.143,2.024,2.635,8.532,3.497,14.011
			c0.864,5.483,0.578,4.955,0.578,11.153c0,6.206,1.908,8.811,1.729,9.811c-0.166,0.936-0.166,0.936-2.687,2.96
			c-2.321,1.856,1.311,12.387,3.455,12.906c4.761,1.156,3.105,8.223,6.565,11.546c3.464,3.315,8.074,0.232,12.768,3.676
			c5.698,4.182,0.794,11.539,1.363,11.828c0.587,0.287,2.053,2.137,1.04,4.589c-1.012,2.451-7.097,2.194-10.715,2.629
			c-3.088,0.375-10.665,1.156-19.323-2.452c-5.509-2.291-8.562-7.832-8.562-7.832s-1.889-2.257-4.194-1.029
			c-0.893,0.475-3.472-1.053-4.974-2.037c-2.514-1.646-4.332-1.801-8.514-7.213c-0.93-1.204-1.317-2.396-1.005-3.606
			c0.46-1.804,0.713-3.955,1.948-4.835c1.364-0.97,2.832-0.049,2.832-0.744c0-1.728,2.498-5.167,5.097-7.476
			c2.596-2.306,3.592-2.837,4.183-2.738c2.67,0.433,3.56-5.315,2.839-5.17c-0.727,0.141-1.978-0.675-2.981-3.848
			c-1.01-3.173-5.051-12.552-7.211-16.445c-2.166-3.894-0.87-8.365-0.87-8.365s1.549-1.153-7.605,0.289
			c-7.332,1.155-11.725-3.173-11.725-3.173s3.463,15.29,4.183,17.739c0.719,2.455,1.588,6.062-1.156,10.822
			c-2.735,4.761-9.952,5.478-11.394,7.497c-1.009,1.421-18.176,14.139-19.9,14.279c-1.74,0.147-2.685,1.813-4.413,4.118
			c-1.735,2.307,1.004,5.338,1.873,8.657c0.87,3.315,2.885,3.027,6.926,4.184c4.033,1.152,5.044,3.026,5.621,4.472
			c0.579,1.441-0.293,5.337-0.142,6.488c0.142,1.156,0.721,2.018-0.435,4.326c-1.154,2.309-9.805,2.309-14.707,2.02
			c-4.911-0.287-12.325-1.954-15.501-4.547c-3.171-2.597-4.761-9.375-4.761-9.521c0-0.145,0.434-1.156-2.16-2.021
			c-1.784-0.595-4.759-4.181-6.204-6.632c-1.442-2.454-4.47-7.503-4.761-9.809c-0.285-2.309,0.64-2.661,2.661-4.249
			c2.017-1.585,5.48-0.578,5.909-1.155c0.432-0.575,3.605-4.326,5.485-4.904c1.875-0.579,4.163-0.637,6.905-1.068
			c2.745-0.435,5.758-2.416,6.158-4.154c0.769-3.367,1.557-3.403,4.522-8.558c3.985-6.925,7.673-6.766,9.616-8.513
			c1.323-1.193-6.058-5.914-7.368-10.966c-1.282-4.962-9.2-8.117-12.826-14.852c-3.028-5.627-0.807-16.897-0.807-16.897
			s-1.013-0.337-3.893-0.337c-2.885,0-4.188,1.348-8.509-0.675c-4.333-2.017-5.486-10.863-6.064-13.318
			c-0.576-2.453-2.158-4.038-3.171-5.769c-1.011-1.731-17.491-21.543-16.479-28.9c1.006-7.358,10.423-12.952,15.387-20.004
			c7.306-10.386,11.794-15.945,15-18.214c4.618-3.266,10.633,0.409,12.697,0c8.461-1.677,7.204,1.145,9.757,1.145
			c1.629,0,3.077,0.432,3.077,0.432c1.776,0.24,3.258-0.094,6.572-1.969c3.321-1.873,10.098-2.74,11.686-1.585
			c1.582,1.153,9.582,8.944,11.597,8.078c2.026-0.867,8.375,1.056,11.544,1.347c3.17,0.286,8.413,3.557,12.308,5.58
			c3.898,2.017,9.666,11.559,10.194,12.688c1.623,3.476,0.094,9.401,1.1,9.401c1.012,0,4.332,0,6.653-1.567
			c0.87-0.592-0.887-5.956,1.705-7.255c2.601-1.297,4.47-5.911,5.338-6.924c0.871-1.009,2.451-3.605,4.476-6.057
			c2.015-2.452,8.739-4.792,12.63-4.792c3.896,0,7.21,0.724,8.08,1.731c0.754,0.885,4.747,2.158,6.744,3.848
			c1.873,1.585,6.741,3.999,8.324,5.439c1.588,1.447,0.99,4.992,0.705,7.445c-0.29,2.452,0.442,4.217,0.584,5.373
			c0.15,1.152-1.438,3.605-1.872,5.622c-0.437,2.02,0.509,5.667,1.45,7.745c1.514,3.313,3.463,3.994,3.323,6.199
			c-0.292,4.544-4.545,7.216-4.911,7.288c-5.54,1.042-7.604,0.183-7.604,0.183s2.268,2.881,1.338,4.761
			c-0.667,1.312-4.043,2.02-4.043,2.02c-1.01,0.723,0.145,3.173-1.527,3.83c-1.615,0.636-3.883-1.167-5.321-1.021
			c-1.446,0.149-2.82,1.805-5.847,2.53c-3.028,0.717-3.247-1.342-5.12-2.495c-1.874-1.153-2.743-3.751-4.183-5.914
			c-1.446-2.164-3.966-4.575-4.543-3.998c-0.578,0.576-3.255,1.258-6.425,2.843c-1.391,0.696,2.603,1.874,2.309,7.934
			c-0.117,2.45-0.875,4.79-0.161,4.79c0.727,0,3.728,0.489,5.934,1.556c3.105,1.501,12.189,4.797,13.201,4.656
			c1.013-0.144,0.78-0.066,2.078-0.784c1.296-0.721,10.984-7.032,11.829-7.648c1.493-1.083,7.068-7.21,7.937-7.933
			c0.862-0.721,2.39-1.951,3.688-1.522c1.243,0.414,3.213,3.278,0.212,8.014c-0.64,1.005-1.68,2.489-1.874,3.488
			c-0.36,1.849,2.601,3.027,3.103,5.087c0.252,1.012,1.156,2.741,1.738,6.493C318.719,223.291,312.737,225.845,312.152,227.141z"/>
		<path fill="#FFFFFF" d="M301.709,171.428c-0.326-3.599-2.738-3.147-4.17-3.313c-0.373-0.04-0.763,0.054-1.133,0.249l-0.015,0.002
			l-0.143,0.075c0,0-0.81,1.107-0.305,2.695c0.466,1.479,0.759,2.812,2.048,3.43l0.021,0.023l0.278,0.115
			C301.072,174.853,301.851,173.001,301.709,171.428z"/>
	</g>
</g>
</svg>
